# xmcd
#
# Track frame offsets: 
#        150
#        20215
#        45962
#        71837
#        94234
#        113256
#        133259
#        153312
#        172393
#        188709
#        203789
#        221686
#
# Disc length: 3260 seconds
#
# Revision: 0
# Processed by: cddbd v1.5.2PL0 Copyright (c) Steve Scherf et al.
# Submitted via: ExactAudioCopy v0.95b4
#
DISCID=ae0cba0c
DTITLE=Tinariwen - Water is Life
DYEAR=2007
DGENRE=Tribal
TTITLE0=Cler achel
TTITLE1=Mano dayak
TTITLE2=Matadjem yinmixan
TTITLE3=Ahimana
TTITLE4=Soixante trois
TTITLE5=Toumast
TTITLE6=Imidiwan winakalin
TTITLE7=Awa didjen
TTITLE8=Ikyadarh dim
TTITLE9=Tamatant tilay
TTITLE10=Assouf
TTITLE11=Izarharh Tenere
EXTD=
EXTT0=
EXTT1=
EXTT2=
EXTT3=
EXTT4=
EXTT5=
EXTT6=
EXTT7=
EXTT8=
EXTT9=
EXTT10=
EXTT11=
PLAYORDER=
